<svg width="127" height="122" viewBox="0 0 127 122" fill="none" xmlns="http://www.w3.org/2000/svg">
<path d="M72.113 3.14954C66.0405 2.15811 59.9221 1.47174 53.7781 1.11075C50.7394 0.932805 47.7006 0.831121 44.6567 0.805699C41.9396 0.785362 39.2124 0.800615 36.5158 1.13109C33.8754 1.4514 31.2809 2.05642 28.8805 3.21055C26.5363 4.33925 24.5088 6.02213 22.7621 7.92873C21.0205 9.83023 19.5241 11.9453 18.0686 14.0705C16.5262 16.3228 15.0451 18.6158 13.6406 20.9495C8.0227 30.2842 3.45686 40.473 1.54166 51.2363C0.596827 56.5595 0.295502 61.9997 0.867509 67.3788C1.42419 72.6715 2.79292 77.8371 4.81538 82.7586C6.86847 87.7514 9.52933 92.4797 12.6396 96.8979C15.658 101.189 19.0492 105.277 22.9817 108.77C27.0777 112.405 31.7355 115.237 36.8784 117.143C41.9958 119.04 47.435 120.067 52.8691 120.494C63.4052 121.318 74.0946 119.665 84.0077 116.076C89.0179 114.261 93.8544 111.957 98.4202 109.207C102.879 106.517 107.189 103.431 110.866 99.7349C114.564 96.0234 117.46 91.6561 119.247 86.7345C120.989 81.9452 121.684 76.7796 121.495 71.7004C121.106 61.1557 116.832 51.1753 110.81 42.6185C104.84 34.1278 97.2302 26.2828 88.2109 21.0054C79.0282 15.6314 67.7617 13.1197 57.343 16.1296C47.8436 18.87 40.719 26.1812 35.9183 34.5346C33.3698 38.968 31.3524 43.7472 29.8662 48.6281C28.2268 54.0123 27.2871 59.7423 27.9817 65.3654C28.6405 70.6988 30.7906 75.661 33.7477 80.125C36.5618 84.3805 39.9734 88.3666 43.7425 91.8137C47.4146 95.1693 51.6842 98.0724 56.5462 99.3689C62.1642 100.874 67.9098 99.7502 73.3694 98.1537C82.3785 95.515 91.5817 91.9916 98.696 85.6973C102.312 82.4993 105.157 78.5845 106.97 74.1154C108.818 69.5498 109.799 64.5875 110.121 59.6863C110.734 50.3669 108.783 40.8441 104.401 32.5771C100.065 24.3966 93.2824 17.6651 84.8606 13.6943C76.6176 9.8099 67.1795 8.44223 58.1908 10.0997C53.7015 10.9284 49.3502 12.5503 45.4585 14.9297C41.3727 17.4312 37.7824 20.6851 34.7538 24.3763C28.5741 31.9162 24.5037 41.1339 22.0828 50.5144C19.6467 59.966 18.8959 70.1446 21.3627 79.6725C23.8295 89.2055 29.8203 97.508 38.4616 102.404C42.9509 104.951 47.9508 106.456 53.0938 106.894C58.4461 107.351 63.8649 106.634 69.0283 105.211C79.2988 102.379 88.8953 96.9132 97.4039 90.6087C105.443 84.6449 112.68 77.4304 117.741 68.7566C122.751 60.1744 125.381 50.1534 124.605 40.2137C124.222 35.2972 123.006 30.4621 120.851 26.0185C118.803 21.7884 115.866 18.0006 112.373 14.8484C105.335 8.50325 96.2854 4.70023 87.1129 2.60552C77.8024 0.480308 67.9098 -0.195897 58.4921 1.65477C53.8599 2.56485 49.3247 4.15113 45.2746 6.5814C41.0203 9.13878 37.4708 12.6215 34.6874 16.7092C31.6384 21.1884 29.4066 26.2778 27.7467 31.4179C26.0103 36.7971 25.0706 42.5779 26.2503 48.1756C27.2973 53.148 29.9837 57.5865 33.2216 61.4506C36.526 65.3959 40.4279 68.8888 44.4626 72.0716C48.6709 75.3916 53.1959 78.315 58.1806 80.3436C63.4818 82.5044 69.161 83.323 74.8505 83.5975C80.6012 83.8772 86.4796 83.9229 92.1639 82.8807C97.2609 81.9452 102.031 79.9115 106.158 76.7745C114.615 70.348 119.641 60.7134 122.623 50.7381C124.217 45.4149 125.478 39.8883 126.137 34.3668C126.76 29.1605 126.515 23.6594 123.844 19.0022C119.288 11.0708 109.62 7.95923 101.158 6.27126C89.6818 3.97827 77.9352 2.98684 66.2397 3.27664C65.254 3.30206 65.254 4.82734 66.2397 4.80192C77.9761 4.51211 89.789 5.47812 101.29 7.85246C109.431 9.53535 118.854 12.5808 122.909 20.4868C125.305 25.1541 125.172 30.6502 124.426 35.709C123.634 41.0526 122.399 46.3961 120.774 51.5465C117.777 61.0337 112.731 70.287 104.431 76.1593C100.203 79.1488 95.3916 80.8978 90.2742 81.6503C84.7738 82.4587 79.069 82.3417 73.5379 81.996C67.9762 81.6452 62.4859 80.6436 57.3838 78.3506C52.6648 76.2305 48.3492 73.2969 44.3605 70.0277C36.9244 63.9419 28.9673 56.3562 27.4914 46.4063C26.6742 40.8695 27.9765 35.221 29.8407 30.0249C31.5822 25.1694 33.809 20.4055 36.8886 16.2415C39.7333 12.3927 43.3901 9.25571 47.6189 7.00339C51.6331 4.86801 56.0509 3.55628 60.5299 2.82414C69.682 1.33446 79.2682 2.1937 88.2262 4.43077C97.0208 6.62716 105.678 10.4708 112.256 16.8211C115.575 20.0241 118.267 23.8221 120.111 28.0471C122.016 32.4145 122.986 37.1682 123.17 41.9118C123.543 51.6126 120.683 61.1557 115.575 69.3769C110.453 77.6185 103.318 84.4822 95.458 90.1359C87.1078 96.1455 77.782 101.372 67.7515 103.965C62.6545 105.282 57.3532 105.851 52.103 105.262C47.2052 104.712 42.4708 103.07 38.2727 100.513C34.1869 98.0266 30.6323 94.6812 27.951 90.7307C25.3208 86.8515 23.5384 82.479 22.5118 77.9235C20.423 68.6499 21.3678 58.8373 23.8652 49.7416C26.3422 40.7323 30.3463 31.845 36.4596 24.6915C39.4933 21.1427 43.0581 18.0311 47.1235 15.7025C50.913 13.5316 55.0958 12.1181 59.4063 11.4165C68.0834 10.0031 77.2509 11.5436 85.0802 15.489C93.1292 19.5411 99.4672 26.1812 103.502 34.1787C107.583 42.2728 109.258 51.521 108.512 60.5303C108.114 65.3451 107.057 70.2768 105.054 74.6899C103.18 78.8234 100.3 82.3672 96.8217 85.2753C89.7175 91.2137 80.5961 94.549 71.7708 97.0047C66.444 98.4893 60.9487 99.2774 55.5963 97.4775C51.0049 95.9319 47.0417 92.9271 43.6148 89.5868C36.3983 82.5553 29.8407 73.5358 29.3197 63.164C29.044 57.6221 30.2339 52.121 32.0266 46.8995C33.5945 42.3287 35.6016 37.8851 38.145 33.7669C40.5556 29.8571 43.4871 26.2473 47.0366 23.3035C50.7547 20.2275 55.1418 18.0616 59.871 17.0549C70.1467 14.8636 80.7748 17.9549 89.4315 23.5374C93.7216 26.3083 97.6031 29.669 101.142 33.3347C104.692 37.0106 107.955 40.9865 110.764 45.2522C116.352 53.7378 120.111 63.5402 119.988 73.7951C119.927 78.737 118.992 83.7246 116.99 88.2598C114.952 92.8915 111.816 96.8725 108.073 100.269C104.304 103.69 100.019 106.573 95.5857 109.075C91.122 111.591 86.4183 113.686 81.5511 115.303C71.8321 118.531 61.4645 119.858 51.2552 118.811C45.9028 118.262 40.5505 117.077 35.5812 114.993C30.7395 112.959 26.4189 109.98 22.6344 106.365C18.9215 102.811 15.6886 98.7537 12.8388 94.488C9.95833 90.1766 7.48134 85.5702 5.64785 80.7199C3.81437 75.8695 2.60907 70.7852 2.24135 65.6095C1.86852 60.388 2.2822 55.1359 3.32918 50.011C5.45378 39.5832 10.0043 29.7808 15.5507 20.741C16.9195 18.5141 18.3495 16.3279 19.8357 14.1823C21.281 12.0978 22.7825 10.0387 24.57 8.2287C26.3371 6.43904 28.3902 4.94936 30.7498 4.03419C33.145 3.09869 35.6986 2.66653 38.2522 2.46825C43.6403 2.05642 49.1357 2.3208 54.5238 2.66145C60.2796 3.02751 66.015 3.67321 71.7044 4.60363C72.6697 4.77649 73.0834 3.30715 72.113 3.14954Z" fill="#0183FF" stroke="#0183FF" stroke-width="1.15456"/>
</svg>
