<svg width="41" height="39" viewBox="0 0 41 39" fill="none" xmlns="http://www.w3.org/2000/svg">
<path opacity="0.5" d="M23.04 1.31352C21.1266 0.999888 19.1987 0.782761 17.2628 0.668568C16.3053 0.612276 15.3479 0.580109 14.3888 0.572067C13.5326 0.565634 12.6733 0.570459 11.8237 0.675001C10.9917 0.776327 10.1742 0.967721 9.41786 1.33282C8.67923 1.68987 8.04036 2.22223 7.49001 2.82536C6.94126 3.42688 6.46976 4.09596 6.01113 4.76825C5.52514 5.48075 5.05847 6.20611 4.61593 6.94434C2.84578 9.89727 1.40714 13.1204 0.803677 16.5253C0.50597 18.2092 0.411026 19.9301 0.591259 21.6318C0.766665 23.3061 1.19794 24.9401 1.83519 26.497C2.4821 28.0764 3.32051 29.5722 4.30052 30.9698C5.25158 32.3273 6.3201 33.6204 7.55921 34.7253C8.8498 35.8753 10.3174 36.7712 11.9379 37.3743C13.5504 37.9742 15.2642 38.2991 16.9764 38.4342C20.2962 38.6947 23.6643 38.172 26.7878 37.0365C28.3665 36.4624 29.8904 35.7338 31.3291 34.8637C32.7339 34.0128 34.0921 33.0366 35.2508 31.8673C36.4158 30.6932 37.3283 29.3116 37.8915 27.7548C38.4402 26.2397 38.6591 24.6056 38.5996 22.9989C38.4773 19.6632 37.1303 16.506 35.2331 13.7991C33.3519 11.1132 30.9541 8.6315 28.1122 6.96203C25.2188 5.26201 21.6689 4.46749 18.3861 5.41963C15.3929 6.28653 13.148 8.59933 11.6354 11.2418C10.8324 12.6443 10.1967 14.1562 9.72844 15.7002C9.21188 17.4034 8.91578 19.216 9.13464 20.9949C9.34223 22.682 10.0197 24.2518 10.9515 25.6639C11.8381 27.0101 12.9131 28.271 14.1007 29.3615C15.2577 30.423 16.6031 31.3414 18.135 31.7515C19.9052 32.2276 21.7156 31.8721 23.4358 31.3671C26.2745 30.5324 29.1743 29.4178 31.416 27.4267C32.5553 26.415 33.4516 25.1766 34.0229 23.7628C34.6055 22.3185 34.9144 20.7488 35.0158 19.1983C35.2089 16.2502 34.5942 13.2378 33.2135 10.6226C31.8472 8.0348 29.7102 5.90535 27.0566 4.64923C24.4593 3.42045 21.4854 2.98781 18.6532 3.51213C17.2387 3.77429 15.8676 4.28735 14.6414 5.04006C13.354 5.83137 12.2227 6.86071 11.2685 8.02837C9.32131 10.4135 8.03875 13.3295 7.27598 16.2969C6.50838 19.2868 6.27183 22.5067 7.04908 25.5208C7.82634 28.5364 9.71396 31.1628 12.4368 32.7117C13.8513 33.5175 15.4267 33.9935 17.0472 34.1319C18.7337 34.2766 20.4411 34.0498 22.068 33.5995C25.3041 32.7036 28.3279 30.9747 31.0088 28.9803C33.5418 27.0937 35.822 24.8115 37.4168 22.0676C38.9954 19.3527 39.8242 16.1827 39.5796 13.0384C39.4589 11.4831 39.0759 9.95356 38.3968 8.54786C37.7515 7.20972 36.8262 6.0115 35.7255 5.01432C33.508 3.00711 30.6564 1.80406 27.7662 1.14142C24.8326 0.469133 21.7156 0.255223 18.7481 0.840661C17.2886 1.12856 15.8596 1.63036 14.5835 2.39915C13.243 3.20815 12.1246 4.30987 11.2476 5.60298C10.2868 7.01993 9.58361 8.62989 9.06061 10.2559C8.51348 11.9576 8.21738 13.7863 8.58911 15.557C8.919 17.13 9.76545 18.5341 10.7857 19.7564C11.8269 21.0045 13.0563 22.1095 14.3276 23.1163C15.6536 24.1665 17.0794 25.0913 18.65 25.7331C20.3204 26.4166 22.1098 26.6756 23.9025 26.7624C25.7145 26.8509 27.5667 26.8653 29.3578 26.5356C30.9638 26.2397 32.4668 25.5964 33.7671 24.604C36.4319 22.5711 38.0154 19.5232 38.9552 16.3677C39.4573 14.6837 39.8548 12.9354 40.0623 11.1888C40.2587 9.54182 40.1814 7.80159 39.3398 6.32834C37.9044 3.81932 34.8581 2.83501 32.1916 2.30104C28.5757 1.57568 24.8745 1.26205 21.1893 1.35372C20.8788 1.36177 20.8788 1.84427 21.1893 1.83623C24.8873 1.74455 28.6095 2.05014 32.2335 2.80124C34.7986 3.3336 37.7676 4.297 39.0453 6.79798C39.8 8.27445 39.7582 10.0131 39.5233 11.6134C39.2738 13.3037 38.8844 14.9941 38.3727 16.6234C37.428 19.6246 35.8381 22.5518 33.2231 24.4094C31.8907 25.3551 30.3748 25.9084 28.7624 26.1464C27.0292 26.4021 25.2317 26.3651 23.4889 26.2558C21.7365 26.1448 20.0066 25.828 18.3989 25.1026C16.912 24.4319 15.5522 23.5039 14.2954 22.4697C11.9524 20.5445 9.44522 18.1449 8.98015 14.9973C8.72268 13.2458 9.13303 11.459 9.7204 9.81524C10.2691 8.27927 10.9708 6.77225 11.9411 5.45501C12.8375 4.23749 13.9897 3.24514 15.3221 2.53264C16.587 1.85714 17.9789 1.44218 19.3902 1.21058C22.274 0.739335 25.2945 1.01115 28.1171 1.71882C30.8881 2.41363 33.6158 3.62954 35.6885 5.63836C36.7345 6.65162 37.5825 7.85306 38.1635 9.1896C38.7637 10.5712 39.0694 12.075 39.1274 13.5756C39.2449 16.6443 38.3437 19.6632 36.7345 22.2639C35.1204 24.871 32.8723 27.0423 30.3957 28.8307C27.7646 30.7318 24.8262 32.3852 21.6657 33.2054C20.0597 33.622 18.3893 33.8021 16.735 33.6156C15.1918 33.4419 13.7 32.9224 12.3772 32.1134C11.0898 31.3269 9.96982 30.2686 9.12498 29.0189C8.29623 27.7917 7.73461 26.4086 7.41116 24.9675C6.75298 22.0339 7.05069 18.9298 7.8376 16.0524C8.61808 13.2024 9.87971 10.391 11.806 8.12809C12.7618 7.00546 13.8851 6.02115 15.166 5.28453C16.3601 4.59776 17.678 4.15064 19.0362 3.92869C21.7703 3.48157 24.6588 3.9689 27.1258 5.21698C29.6619 6.49883 31.659 8.59933 32.9303 11.1293C34.216 13.6898 34.7439 16.6153 34.5089 19.4653C34.3834 20.9884 34.0503 22.5485 33.4195 23.9446C32.8289 25.2522 31.9213 26.3732 30.8254 27.2932C28.587 29.1717 25.7129 30.2268 22.9321 31.0036C21.2537 31.4733 19.5222 31.7226 17.8357 31.1532C16.389 30.6643 15.1403 29.7137 14.0605 28.657C11.7866 26.4327 9.7204 23.5795 9.55625 20.2985C9.46936 18.5454 9.84431 16.8051 10.4091 15.1533C10.9032 13.7074 11.5356 12.3017 12.337 10.999C13.0965 9.76217 14.0202 8.62024 15.1387 7.68901C16.3102 6.71596 17.6925 6.0308 19.1826 5.71235C22.4204 5.01915 25.7692 5.99703 28.4968 7.76299C29.8486 8.63954 31.0716 9.70266 32.1868 10.8623C33.3052 12.0251 34.3335 13.2828 35.2186 14.6322C36.9791 17.3166 38.1635 20.4175 38.1248 23.6615C38.1055 25.2248 37.811 26.8026 37.1802 28.2373C36.5381 29.7025 35.5501 30.9618 34.3705 32.0362C33.1829 33.1186 31.8328 34.0305 30.436 34.8218C29.0295 35.618 27.5474 36.2806 26.0138 36.7921C22.9514 37.8134 19.6847 38.2331 16.4679 37.9018C14.7814 37.7281 13.0949 37.3534 11.5292 36.694C10.0036 36.0506 8.64221 35.1081 7.44978 33.9646C6.27987 32.8404 5.26123 31.5569 4.36328 30.2075C3.45568 28.8436 2.67521 27.3864 2.09749 25.8521C1.51978 24.3177 1.14001 22.7094 1.02414 21.0721C0.906667 19.4203 1.03701 17.7589 1.36691 16.1377C2.03634 12.8389 3.47016 9.73804 5.21778 6.8784C5.64905 6.17394 6.09964 5.48235 6.56792 4.80363C7.02333 4.14421 7.49645 3.49283 8.05967 2.92026C8.61647 2.35412 9.26338 1.88287 10.0068 1.59337C10.7616 1.29743 11.5662 1.16072 12.3708 1.098C14.0685 0.967721 15.8 1.05135 17.4978 1.15911C19.3114 1.27492 21.1185 1.47918 22.9112 1.7735C23.2154 1.82819 23.3457 1.36337 23.04 1.31352Z" fill="white" stroke="white"/>
</svg>
